<svg xmlns="http://www.w3.org/2000/svg" xmlns:xlink="http://www.w3.org/1999/xlink" version="1.1" x="0px" y="0px" viewBox="0 0 100 100" style="enable-background:new 0 0 100 100;" xml:space="preserve"><g><path d="M54.7,50.5c2,2.2,1.9,5.7-0.3,7.7c-2.2,2-5.7,1.9-7.7-0.3c-2-2.2-1.9-5.7,0.3-7.7   C49.2,48.2,52.6,48.3,54.7,50.5z"></path><path d="M50,0C22.4,0,0,22.4,0,50s22.4,50,50,50s50-22.4,50-50S77.6,0,50,0z M50,98.1C23.5,98.1,1.8,76.5,1.8,50   S23.5,1.8,50,1.8c26.5,0,48.2,21.6,48.2,48.2S76.5,98.1,50,98.1z"></path><g><polygon points="77,33.6 60.4,48.9 59.4,47.7 58.4,46.6 75,31.3 76,32.5   "></polygon></g><g><polygon points="44.8,46.2 42.5,48.2 21.7,24.5 22.8,23.5 23.9,22.5   "></polygon></g></g></svg>