<svg xmlns:dc="http://purl.org/dc/elements/1.1/" xmlns:cc="http://creativecommons.org/ns#" xmlns:rdf="http://www.w3.org/1999/02/22-rdf-syntax-ns#" xmlns:svg="http://www.w3.org/2000/svg" xmlns="http://www.w3.org/2000/svg" xmlns:sodipodi="http://sodipodi.sourceforge.net/DTD/sodipodi-0.dtd" xmlns:inkscape="http://www.inkscape.org/namespaces/inkscape" version="1.1" x="0px" y="0px" viewBox="0 0 100 100"><g transform="translate(0,-952.36218)"><path style="font-size:medium;font-style:normal;font-variant:normal;font-weight:normal;font-stretch:normal;text-indent:0;text-align:start;text-decoration:none;line-height:normal;letter-spacing:normal;word-spacing:normal;text-transform:none;direction:ltr;block-progression:tb;writing-mode:lr-tb;text-anchor:start;baseline-shift:baseline;opacity:1;color:#000000;fill:#000000;fill-opacity:1;stroke:none;stroke-width:6;marker:none;visibility:visible;display:inline;overflow:visible;enable-background:accumulate;font-family:Sans;-inkscape-font-specification:Sans" d="M 14,5 C 9.619893,5 6,8.61989 6,13 l 0,44 c 0,4.3801 3.619893,8 8,8 l 22.75,0 -4.34375,7.46875 c -0.538596,0.907741 -0.547948,2.105438 -0.02359,3.021479 C 32.907011,76.40627 33.944511,77.004735 35,77 l 30,0 c 1.055489,0.0047 2.092989,-0.59373 2.617343,-1.509771 0.524355,-0.916041 0.515003,-2.113738 -0.02359,-3.021479 L 63.25,65 86,65 c 4.380107,0 8,-3.6199 8,-8 L 94,13 C 94,8.61989 90.380107,5 86,5 z m 0,6 72,0 c 1.15989,0 2,0.84011 2,2 l 0,44 c 0,1.1599 -0.84011,2 -2,2 l -72,0 c -1.15989,0 -2,-0.8401 -2,-2 l 0,-44 c 0,-1.15989 0.84011,-2 2,-2 z m 36,3 C 38.437571,14 29,23.43757 29,35 29,46.56242 38.437571,56 50,56 61.562428,56 71,46.56242 71,35 71,23.43757 61.562428,14 50,14 z m 0,6 c -0.07578,0 0.06235,-0.0725 0.53125,0.4375 0.468902,0.50999 1.08504,1.51778 1.625,2.90625 0.205581,0.528636 0.382918,1.123489 0.5625,1.75 C 51.830865,25.04613 50.920989,25 50,25 c -0.920983,0 -1.830868,0.04613 -2.71875,0.09375 0.179582,-0.626511 0.356919,-1.221364 0.5625,-1.75 0.539961,-1.38847 1.156097,-2.39626 1.625,-2.90625 C 49.937653,19.92751 50.075776,20 50,20 z m -8.1875,2.4375 c -0.35647,1.08407 -0.684133,2.246105 -0.9375,3.46875 -1.206198,0.25305 -2.365528,0.551901 -3.4375,0.90625 1.139418,-1.753137 2.621863,-3.235581 4.375,-4.375 z m 16.375,0 c 1.753137,1.139419 3.235582,2.621863 4.375,4.375 C 61.490533,26.458151 60.331196,26.1593 59.125,25.90625 58.871633,24.683605 58.543969,23.52157 58.1875,22.4375 z M 50,31 c 1.312784,0 2.591093,0.07606 3.8125,0.1875 C 53.923942,32.408907 54,33.687216 54,35 c 0,1.320978 -0.07472,2.587787 -0.1875,3.8125 C 52.591093,38.923942 51.312784,39 50,39 48.679023,39 47.412213,38.925275 46.1875,38.8125 46.074725,37.587787 46,36.320978 46,35 46,33.687216 46.076058,32.408907 46.1875,31.1875 47.412213,31.074725 48.679023,31 50,31 z m -9.90625,1.28125 C 40.04613,33.170702 40,34.079011 40,35 c 0,0.920982 0.04613,1.830869 0.09375,2.71875 C 39.479804,37.541441 38.895682,37.358737 38.375,37.15625 36.986515,36.61629 35.947501,35.96891 35.4375,35.5 34.927499,35.03109 35,34.9242 35,35 c 0,0.0758 -0.0725,-0.0623 0.4375,-0.53125 0.510001,-0.46891 1.549015,-1.08504 2.9375,-1.625 0.520682,-0.202487 1.104804,-0.385191 1.71875,-0.5625 z m 19.8125,0 c 0.626511,0.179582 1.221363,0.356919 1.75,0.5625 1.388467,0.53996 2.396262,1.1561 2.90625,1.625 C 65.072488,34.93765 65,35.07578 65,35 c 0,-0.0758 0.07249,0.0311 -0.4375,0.5 -0.509988,0.4689 -1.517783,1.11629 -2.90625,1.65625 -0.528637,0.205581 -1.123489,0.382918 -1.75,0.5625 C 59.95387,36.830869 60,35.920982 60,35 60,34.079011 59.95387,33.170702 59.90625,32.28125 z m -22.5,10.875 c 1.08911,0.362985 2.271993,0.676906 3.5,0.9375 0.254274,1.217197 0.548972,2.387914 0.90625,3.46875 -1.765002,-1.147129 -3.263994,-2.637759 -4.40625,-4.40625 z m 25.1875,0 c -1.142256,1.768491 -2.641248,3.259121 -4.40625,4.40625 0.357278,-1.080836 0.651976,-2.251553 0.90625,-3.46875 1.228005,-0.260594 2.410895,-0.574515 3.5,-0.9375 z m -15.3125,1.75 C 48.169132,44.955437 49.079017,45 50,45 c 0.920989,0 1.830865,-0.04456 2.71875,-0.09375 -0.177309,0.613945 -0.360014,1.198068 -0.5625,1.71875 -0.539962,1.3885 -1.156092,2.39625 -1.625,2.90625 C 50.062342,50.04135 49.924203,50 50,50 c 0.0758,0 -0.06234,0.04105 -0.53125,-0.46875 -0.468909,-0.51 -1.085037,-1.51775 -1.625,-2.90625 -0.202486,-0.520682 -0.385191,-1.104805 -0.5625,-1.71875 z M 43.71875,65 l 12.5625,0 3.5,6 -19.5625,0 z m -26.40625,15.65625 -5,10 c -0.456028,0.910631 -0.404575,2.055971 0.131268,2.922044 C 12.979612,94.444366 13.981566,95.001626 15,95 l 70,0 c 1.018434,0.0016 2.020388,-0.555634 2.556232,-1.421706 0.535843,-0.866073 0.587296,-2.011413 0.131268,-2.922044 l -5,-10 C 82.1911,79.665547 81.108107,78.998121 80,79 l -60,0 c -1.127032,0 -2.260256,0.801763 -2.6875,1.65625 z M 21.875,85 l 56.25,0 2,4 -60.25,0 z" transform="translate(0,952.36218)"></path></g></svg>