<svg xmlns="http://www.w3.org/2000/svg" xmlns:xlink="http://www.w3.org/1999/xlink" version="1.1" x="0px" y="0px" viewBox="0 0 100 100" enable-background="new 0 0 100 100" xml:space="preserve"><g><path fill="#000000" d="M91.074,4.929c-3.576-0.319-6.732,2.323-7.051,5.899l-0.314,3.54C74.541,5.84,62.688,1.161,50.09,1.161   C22.84,1.161,0.67,23.33,0.67,50.58S22.84,100,50.09,100c18.83,0,35.77-10.464,44.207-27.309c1.607-3.21,0.311-7.115-2.9-8.724   c-3.209-1.604-7.113-0.31-8.723,2.9C76.453,79.285,63.969,86.999,50.09,86.999c-20.082,0-36.42-16.338-36.42-36.42   c0-20.081,16.338-36.419,36.42-36.419c9.377,0,18.193,3.52,24.977,9.926l-5.229-0.465c-3.562-0.325-6.73,2.323-7.051,5.898   c-0.316,3.576,2.324,6.732,5.9,7.051l19.424,1.726c0.191,0.018,0.383,0.025,0.574,0.025c1.52,0,2.998-0.532,4.172-1.517   c1.322-1.104,2.15-2.691,2.303-4.408l1.814-20.42C97.291,8.402,94.65,5.246,91.074,4.929z"></path></g></svg>