<svg xmlns="http://www.w3.org/2000/svg" xmlns:xlink="http://www.w3.org/1999/xlink" version="1.1" x="0px" y="0px" viewBox="0 0 100 100" enable-background="new 0 0 100 100" xml:space="preserve"><g><g><g><path fill="#000000" d="M3.513,50.039c0.109-1.381,0.216-2.763,0.321-4.146C3.919,44.771,4,43.647,4.086,42.526     c0.103-1.342,0.21-2.685,0.314-4.027c0.085-1.107,0.166-2.215,0.251-3.32c0.104-1.352,0.211-2.701,0.315-4.052     c0.085-1.106,0.167-2.215,0.252-3.321c0.104-1.351,0.21-2.699,0.314-4.051c0.085-1.1,0.167-2.197,0.252-3.298     c0.105-1.367,0.21-2.733,0.317-4.099c0.049-0.619,0.068-1.244,0.16-1.857c0.2-1.338,1.432-2.586,2.699-2.779     C9.084,11.704,9.211,11.7,9.337,11.7c8.771-0.002,17.542-0.002,26.313,0c1.327,0,2.599,1.021,2.798,2.271     c0.066,0.418,0.061,0.848,0.069,1.272c0.01,0.565,0.002,1.132,0.002,1.737c0.178-0.059,0.23-0.15,0.297-0.219     c1.041-1.055,2.235-1.865,3.665-2.298c0.394-0.118,0.799-0.171,1.212-0.171c11.883,0.002,23.768,0.001,35.65,0.003     c1.89,0,3.586,0.64,5.152,1.644c1.885,1.209,3.287,2.834,4.079,4.945c0.747,1.992,0.754,4.022,0.242,6.066     c-0.052,0.207-0.013,0.328,0.144,0.468c1.539,1.356,2.506,3.037,2.832,5.073c0.235,1.468,0.07,2.906-0.356,4.318     c-0.091,0.299-0.038,0.474,0.192,0.688c1.541,1.426,2.596,3.139,2.945,5.234c0.249,1.502,0.014,2.936-0.708,4.281     c-0.103,0.188-0.083,0.291,0.076,0.436c1.294,1.167,2.33,2.515,2.933,4.173c1.274,3.52-0.148,7.563-3.332,9.418     c-0.98,0.57-2.035,0.854-3.178,0.852c-7.771-0.008-15.54-0.004-23.311-0.004c-0.461,0-0.463,0-0.354,0.449     c0.488,2.021,1.054,4.023,1.45,6.066c0.307,1.58,0.486,3.173,0.602,4.779c0.199,2.801-0.386,5.469-1.281,8.088     c-1,2.918-2.299,5.696-3.854,8.358c-0.256,0.437-0.595,0.769-1.027,1.017c-1.26,0.721-2.627,1.092-4.058,1.262     c-0.319,0.037-0.642,0.058-0.963,0.086c-0.235,0-0.474,0-0.709,0c-0.586-0.063-1.177-0.098-1.754-0.227     c-2.103-0.47-3.777-1.568-4.994-3.354c-0.112-0.163-0.163-0.33-0.161-0.527c0.038-2.734,0.057-5.468,0.11-8.201     c0.022-1.189-0.007-2.379,0.049-3.567c0.024-0.492-0.079-0.917-0.293-1.353c-2.713-5.531-5.794-10.836-9.537-15.74     c-0.942-1.235-1.95-2.416-3.096-3.471c-0.233-0.215-0.265-0.236-0.421,0.028c-0.217,0.369-0.546,0.374-0.897,0.374     c-2.671,0.004-5.342,0.009-8.012,0.011c-5.153,0.005-10.306-0.005-15.458,0.019c-1.867,0.009-3.734,0.008-5.601,0.025     c-1.571,0.014-2.587-0.824-3.299-2.134c-0.041-0.075-0.077-0.153-0.116-0.231c0-0.726,0-1.451,0-2.176     C3.424,50.993,3.471,50.516,3.513,50.039z M51.315,18.062c-1.93,0.012-3.861,0.016-5.791,0.039     c-0.488,0.006-0.976,0.031-1.464,0.045c-0.302,0.008-0.567,0.125-0.826,0.262c-1.192,0.627-2.365,1.295-3.498,2.021     c-0.548,0.352-1.091,0.477-1.735,0.432c-0.736-0.049-1.48,0.007-2.22,0.015c-0.154,0.001-0.236,0.067-0.23,0.228     c0.003,0.078,0,0.157,0,0.236c-0.001,9.377,0.001,18.756-0.008,28.132c-0.001,0.331,0.101,0.525,0.376,0.711     c1.446,0.971,2.875,1.965,4.312,2.948c0.196,0.136,0.371,0.287,0.521,0.476c3.448,4.33,6.494,8.932,9.263,13.721     c1.342,2.32,2.611,4.68,3.841,7.061c0.099,0.19,0.123,0.383,0.123,0.592c-0.002,3.924,0.003,7.849-0.009,11.772     c0,0.315,0.103,0.504,0.361,0.674c0.864,0.57,1.807,0.87,2.84,0.931c1.237,0.071,2.371-0.224,3.41-0.897     c0.122-0.08,0.217-0.175,0.279-0.31c1.419-3.029,2.68-6.119,3.521-9.367c0.297-1.145,0.541-2.303,0.492-3.496     c-0.055-1.369-0.164-2.735-0.345-4.096c-0.513-3.893-1.328-7.729-2.188-11.558c-0.008-0.03-0.014-0.062-0.021-0.092     c-0.063-0.294-0.052-0.313,0.249-0.313c5.484-0.002,10.969-0.004,16.454-0.004c3.647-0.002,7.297,0.033,10.944-0.018     c1.658-0.023,3.256-1.169,3.609-3.223c0.348-2.026-0.629-4.094-2.443-5.232c-0.447-0.281-0.912-0.523-1.426-0.673     c-0.619-0.18-0.791-1.068-0.304-1.534c0.793-0.758,1.244-1.702,1.429-2.763c0.262-1.491-0.166-2.809-1.147-3.945     c-0.697-0.807-1.556-1.398-2.524-1.834c-0.775-0.348-0.957-1.316-0.347-1.865c1.387-1.244,1.789-2.717,1.142-4.462     c-0.566-1.524-1.535-2.739-2.986-3.53c-0.223-0.123-0.457-0.217-0.705-0.271c-0.229-0.05-0.369-0.19-0.471-0.392     c-0.281-0.561-0.164-1.104,0.307-1.53c0.904-0.815,1.455-1.8,1.392-3.052c-0.049-0.951-0.437-1.787-0.983-2.547     c-0.928-1.291-2.109-2.287-3.531-3c-0.43-0.215-0.877-0.316-1.364-0.316c-5.862,0.009-11.726,0.006-17.589,0.006     c0,0.005,0,0.01,0,0.016C58.457,18.058,54.885,18.04,51.315,18.062z M22.823,21.147c0.003,1.435,1.177,2.602,2.612,2.598     c1.42-0.004,2.579-1.178,2.573-2.607c-0.007-1.432-1.161-2.578-2.597-2.574C23.981,18.565,22.821,19.726,22.823,21.147z"></path><path fill="none" d="M3.593,92c-0.177,0-0.217-0.04-0.217-0.217C3.38,79.07,3.38,66.359,3.38,53.646     c0.039,0.078,0.075,0.156,0.116,0.232c0.713,1.309,1.728,2.148,3.299,2.135c1.867-0.018,3.734-0.017,5.601-0.025     c5.152-0.024,10.305-0.016,15.458-0.02c2.67-0.003,5.341-0.008,8.012-0.011c0.35,0,0.68-0.006,0.897-0.374     c0.155-0.264,0.187-0.243,0.421-0.027c1.145,1.055,2.154,2.234,3.096,3.469c3.743,4.904,6.824,10.211,9.537,15.74     c0.213,0.437,0.315,0.861,0.293,1.354c-0.056,1.188-0.026,2.379-0.049,3.568c-0.054,2.732-0.072,5.467-0.11,8.199     c-0.002,0.198,0.049,0.364,0.161,0.528c1.218,1.785,2.892,2.884,4.994,3.354c0.577,0.129,1.168,0.162,1.754,0.226     C39.104,91.995,21.348,91.995,3.593,92z"></path><path fill="none" d="M3.372,11.204c0-0.178,0.04-0.217,0.217-0.217c31.398,0.005,62.795,0.005,94.193,0     c0.177,0,0.218,0.039,0.218,0.217c-0.006,26.859-0.006,53.717,0,80.575c0,0.177-0.041,0.217-0.218,0.217     c-13.405-0.004-26.812-0.004-40.217-0.004c0.321-0.028,0.644-0.049,0.963-0.086c1.431-0.17,2.798-0.541,4.058-1.262     c0.432-0.248,0.771-0.58,1.027-1.017c1.555-2.662,2.854-5.44,3.854-8.358c0.896-2.619,1.48-5.287,1.28-8.088     c-0.116-1.606-0.294-3.199-0.601-4.779c-0.396-2.043-0.963-4.045-1.45-6.066c-0.108-0.449-0.108-0.449,0.354-0.449     c7.771,0,15.539-0.004,23.311,0.004c1.143,0.002,2.197-0.281,3.178-0.852c3.184-1.855,4.606-5.898,3.331-9.418     c-0.603-1.657-1.638-3.006-2.932-4.173c-0.159-0.145-0.179-0.247-0.076-0.436c0.722-1.345,0.957-2.779,0.708-4.281     c-0.348-2.096-1.404-3.808-2.945-5.234c-0.23-0.214-0.283-0.389-0.193-0.688c0.427-1.412,0.592-2.85,0.356-4.318     c-0.325-2.036-1.293-3.717-2.831-5.073c-0.158-0.14-0.195-0.261-0.144-0.468c0.512-2.045,0.505-4.074-0.242-6.066     c-0.792-2.111-2.194-3.736-4.079-4.945c-1.566-1.004-3.262-1.644-5.152-1.644c-11.883-0.002-23.767-0.001-35.65-0.003     c-0.413,0-0.818,0.053-1.212,0.171c-1.43,0.433-2.624,1.243-3.665,2.298c-0.067,0.069-0.119,0.16-0.297,0.219     c0-0.605,0.009-1.172-0.002-1.737c-0.008-0.425-0.003-0.854-0.069-1.272c-0.199-1.25-1.47-2.271-2.798-2.271     c-8.771-0.002-17.542-0.002-26.313,0c-0.126,0-0.253,0.003-0.377,0.021c-1.267,0.193-2.499,1.441-2.699,2.779     c-0.092,0.613-0.111,1.238-0.16,1.857c-0.107,1.367-0.212,2.732-0.317,4.099c-0.085,1.101-0.167,2.198-0.252,3.298     c-0.104,1.352-0.21,2.7-0.314,4.051c-0.085,1.106-0.167,2.215-0.252,3.321c-0.104,1.351-0.211,2.7-0.315,4.051     c-0.084,1.106-0.166,2.214-0.251,3.321c-0.103,1.342-0.211,2.684-0.314,4.027c-0.086,1.121-0.167,2.244-0.252,3.367     c-0.106,1.383-0.212,2.764-0.321,4.146c-0.038,0.479-0.086,0.956-0.129,1.434C3.38,38.05,3.381,24.629,3.372,11.204z"></path><path fill="none" d="M62.025,18.042c5.863,0,11.727,0.003,17.59-0.002c0.486,0,0.934,0.102,1.364,0.316     c1.422,0.713,2.604,1.709,3.532,3c0.545,0.761,0.933,1.596,0.982,2.547c0.064,1.252-0.488,2.238-1.391,3.052     c-0.471,0.426-0.59,0.969-0.309,1.53c0.103,0.201,0.243,0.342,0.473,0.392c0.248,0.054,0.482,0.147,0.705,0.271     c1.449,0.791,2.42,2.006,2.986,3.531c0.646,1.744,0.244,3.217-1.143,4.461c-0.61,0.549-0.428,1.518,0.347,1.865     c0.968,0.436,1.827,1.027,2.524,1.834c0.982,1.137,1.408,2.454,1.148,3.945c-0.186,1.061-0.637,2.005-1.43,2.763     c-0.486,0.466-0.316,1.354,0.303,1.534c0.516,0.149,0.979,0.392,1.428,0.673c1.813,1.137,2.791,3.206,2.442,5.232     c-0.353,2.054-1.95,3.199-3.61,3.223c-3.646,0.051-7.295,0.016-10.943,0.018c-5.484,0-10.971,0.002-16.454,0.004     c-0.301,0-0.312,0.02-0.249,0.313c0.007,0.03,0.014,0.062,0.02,0.093c0.861,3.827,1.676,7.663,2.189,11.557     c0.18,1.361,0.29,2.726,0.346,4.096c0.049,1.193-0.195,2.352-0.492,3.497c-0.842,3.245-2.103,6.337-3.522,9.366     c-0.062,0.135-0.157,0.229-0.28,0.31c-1.037,0.675-2.172,0.968-3.41,0.897c-1.033-0.061-1.975-0.361-2.84-0.93     c-0.257-0.171-0.361-0.359-0.359-0.675c0.011-3.924,0.006-7.849,0.008-11.772c0-0.209-0.023-0.401-0.123-0.592     c-1.23-2.382-2.499-4.74-3.84-7.061c-2.769-4.789-5.816-9.391-9.264-13.721c-0.15-0.189-0.325-0.34-0.521-0.476     c-1.437-0.983-2.867-1.978-4.312-2.948c-0.274-0.186-0.376-0.379-0.376-0.711c0.009-9.376,0.008-18.755,0.008-28.132     c0-0.078,0.003-0.158,0-0.236c-0.007-0.162,0.075-0.227,0.23-0.228c0.741-0.008,1.484-0.065,2.22-0.015     c0.644,0.046,1.187-0.079,1.735-0.432c1.133-0.726,2.306-1.394,3.498-2.021c0.259-0.137,0.524-0.254,0.826-0.262     c0.488-0.014,0.976-0.039,1.464-0.045c1.93-0.023,3.861-0.026,5.791-0.039c3.568-0.025,7.141-0.008,10.709-0.008     C62.025,18.052,62.025,18.047,62.025,18.042z"></path><path fill="none" d="M28.008,21.138c0.007,1.43-1.153,2.604-2.573,2.608c-1.435,0.004-2.609-1.163-2.612-2.597     c-0.002-1.424,1.158-2.584,2.588-2.586C26.847,18.562,28.002,19.706,28.008,21.138z M24.501,20.522     c-0.006,0.201,0.154,0.367,0.349,0.365c0.186-0.002,0.342-0.162,0.342-0.35c0.001-0.196-0.143-0.342-0.339-0.346     C24.653,20.188,24.508,20.325,24.501,20.522z M25.635,21.681c-0.001,0.197,0.14,0.342,0.335,0.346     c0.199,0.004,0.362-0.158,0.356-0.354c-0.006-0.187-0.165-0.338-0.353-0.336C25.78,21.338,25.635,21.485,25.635,21.681z      M25.635,20.53c-0.001,0.191,0.146,0.351,0.332,0.357c0.191,0.006,0.363-0.166,0.359-0.359c-0.003-0.189-0.155-0.336-0.349-0.336     C25.776,20.192,25.636,20.331,25.635,20.53z M24.851,21.337c-0.199-0.003-0.356,0.156-0.35,0.357     c0.006,0.191,0.158,0.336,0.35,0.332c0.19-0.002,0.341-0.155,0.341-0.344S25.041,21.34,24.851,21.337z"></path><path fill="#000000" d="M25.193,20.537c-0.001,0.188-0.156,0.347-0.342,0.351c-0.196,0.002-0.355-0.164-0.349-0.365     c0.006-0.197,0.151-0.334,0.351-0.33C25.049,20.196,25.193,20.343,25.193,20.537z"></path><path fill="#000000" d="M26.326,21.673c0.006,0.196-0.157,0.357-0.356,0.355c-0.195-0.004-0.336-0.15-0.335-0.348     c0-0.195,0.145-0.343,0.338-0.345C26.161,21.334,26.321,21.485,26.326,21.673z"></path><path fill="#000000" d="M26.326,20.528c0.004,0.193-0.168,0.365-0.359,0.359c-0.186-0.006-0.333-0.166-0.332-0.357     c0.002-0.199,0.141-0.338,0.342-0.338C26.171,20.192,26.322,20.339,26.326,20.528z"></path><path fill="#000000" d="M24.852,22.026c-0.192,0.002-0.344-0.143-0.35-0.334c-0.006-0.2,0.151-0.359,0.35-0.356     c0.188,0.004,0.34,0.159,0.34,0.347C25.192,21.871,25.042,22.022,24.852,22.026z"></path></g></g></g></svg>